<svg width="30" height="30" viewBox="0 0 30 30" fill="none" xmlns="http://www.w3.org/2000/svg">
<path d="M30 15C30 23.2848 23.2848 30 15 30C6.71524 30 0 23.2848 0 15C0 6.71524 6.71524 0 15 0C23.2848 0 30 6.71524 30 15Z" fill="#B4B2C2"/>
<path d="M26.4766 5.3452C23.7248 2.07706 19.6059 0 15 0C6.71523 0 0 6.71524 0 15C0 16.7397 0.299237 18.409 0.844905 19.9638C9.30569 14.9443 17.8427 10.0567 26.4766 5.3452Z" fill="#8F8DA3"/>
<path d="M26.1657 14.7624C26.1657 21.0611 21.0611 26.1657 14.7624 26.1657C8.46377 26.1657 3.35913 21.0611 3.35913 14.7624C3.35913 8.46377 8.46377 3.35913 14.7624 3.35913C21.0611 3.35913 26.1657 8.46377 26.1657 14.7624Z" fill="#D7D6DC"/>
<path d="M26.4883 15.2375C26.4883 21.4511 21.4511 26.4883 15.2375 26.4883C9.02397 26.4883 3.98682 21.4511 3.98682 15.2375C3.98682 9.02397 9.02397 3.98682 15.2375 3.98682C21.4511 3.98682 26.4883 9.02397 26.4883 15.2375Z" fill="#7B7A8C"/>
<path d="M6 11H6.82548C6.97386 11 7.08655 11.0651 7.16356 11.1953C7.19549 11.2508 7.21146 11.3197 7.21146 11.402V15H6.36344C6.2714 15 6.18501 14.9608 6.10424 14.8823C6.03475 14.8095 6 14.7176 6 14.6066V11Z" fill="white"/>
<path d="M9.44279 11H12.4602C12.5992 11 12.709 11.0613 12.7898 11.1838C12.8255 11.2469 12.8433 11.313 12.8433 11.3819V12.0366H9.4597C9.24182 12.0366 9.06339 12.1266 8.9244 12.3065C8.83612 12.4252 8.79199 12.5583 8.79199 12.7057V13.2943C8.79199 13.4704 8.85303 13.6255 8.97511 13.7595C9.03334 13.815 9.08029 13.8524 9.11598 13.8715C9.14979 13.8945 9.18735 13.9117 9.22867 13.9232C9.30756 13.9519 9.36766 13.9663 9.40898 13.9663H12.8349V14.6296C12.8349 14.7349 12.7889 14.8306 12.6968 14.9167C12.6254 14.9722 12.5466 15 12.4602 15H9.43716C9.09156 15 8.76851 14.8918 8.46799 14.6755C8.41728 14.6391 8.34591 14.5769 8.25387 14.4889C8.15808 14.3836 8.09329 14.3013 8.05948 14.2419C8.00313 14.1539 7.96087 14.0773 7.9327 14.0122C7.82752 13.7901 7.77493 13.5413 7.77493 13.2656V12.7373C7.77493 12.4367 7.83879 12.1658 7.9665 11.9246C8.00031 11.8557 8.04633 11.7772 8.10455 11.6892C8.11958 11.6719 8.13555 11.6528 8.15245 11.6317C8.18062 11.5973 8.21255 11.5599 8.24824 11.5197C8.34779 11.4202 8.42855 11.3513 8.49053 11.313C8.59571 11.2364 8.69995 11.1752 8.80326 11.1292C9.01737 11.0431 9.23055 11 9.44279 11Z" fill="white"/>
<path d="M13.8857 11H16.7425C17.1276 11 17.46 11.0613 17.7399 11.1838C17.7962 11.2067 17.8404 11.2259 17.8723 11.2412C17.9192 11.268 17.969 11.2996 18.0216 11.336C18.2714 11.491 18.4489 11.7102 18.5541 11.9935C18.6104 12.1448 18.6386 12.3056 18.6386 12.476V12.5133C18.6386 12.7181 18.5963 12.9115 18.5118 13.0933C18.4855 13.145 18.4527 13.2024 18.4132 13.2656C18.3794 13.3116 18.339 13.3604 18.2921 13.4121C18.2695 13.4389 18.247 13.4628 18.2244 13.4838L18.1963 13.5126L18.1737 13.5298L18.1315 13.5642C18.0977 13.5891 18.0554 13.6179 18.0047 13.6504C17.9972 13.6542 17.9897 13.659 17.9822 13.6648C17.9314 13.6916 17.8854 13.7155 17.8441 13.7365C17.8234 13.7461 17.8037 13.7557 17.7849 13.7653C17.7117 13.7959 17.6347 13.8236 17.5539 13.8485C17.7868 14.0936 17.9465 14.2716 18.0329 14.3826C18.0911 14.4496 18.1484 14.5157 18.2047 14.5808C18.3118 14.7071 18.4141 14.8248 18.5118 14.934C18.5419 14.9627 18.5597 14.9828 18.5653 14.9943H17.3483C17.2788 14.9943 17.2243 14.9866 17.1848 14.9713C17.1736 14.9655 17.1632 14.9598 17.1539 14.9541C17.1445 14.9483 17.1341 14.9416 17.1229 14.934C17.0834 14.9072 17.0393 14.8622 16.9905 14.799C16.812 14.5827 16.6233 14.3463 16.4242 14.0897L16.3256 13.9605C16.3199 13.9605 16.3087 13.9624 16.2918 13.9663C16.1753 13.9663 15.825 13.9682 15.2409 13.972H14.5253V14.6238C14.5253 14.7464 14.4736 14.8497 14.3703 14.934C14.3083 14.978 14.237 15 14.1562 15H13.511V11.402C13.511 11.3369 13.5185 11.2852 13.5336 11.2469C13.5411 11.224 13.5542 11.1972 13.573 11.1665C13.5862 11.1474 13.6021 11.1292 13.6209 11.112C13.6998 11.0373 13.7881 11 13.8857 11ZM14.5253 12.0366V12.9411H16.8327C17.013 12.9411 17.1501 12.9095 17.244 12.8464C17.3116 12.8023 17.3614 12.744 17.3933 12.6712C17.4196 12.6157 17.4328 12.5525 17.4328 12.4817C17.4328 12.3419 17.3699 12.2252 17.244 12.1314C17.2252 12.118 17.2055 12.1065 17.1848 12.0969C17.1792 12.095 17.1736 12.0921 17.1679 12.0883C17.1341 12.0711 17.0825 12.0558 17.013 12.0424C16.9905 12.0424 16.9595 12.0404 16.92 12.0366H14.5253Z" fill="white"/>
<path d="M20.5995 11H23.6168C23.7558 11 23.8657 11.0613 23.9465 11.1838C23.9822 11.2469 24 11.313 24 11.3819V12.0366H20.6164C20.3985 12.0366 20.2201 12.1266 20.0811 12.3065C19.9928 12.4252 19.9487 12.5583 19.9487 12.7057V13.2943C19.9487 13.4704 20.0097 13.6255 20.1318 13.7595C20.19 13.815 20.237 13.8524 20.2727 13.8715C20.3065 13.8945 20.344 13.9117 20.3853 13.9232C20.4642 13.9519 20.5243 13.9663 20.5657 13.9663H23.9915V14.6296C23.9915 14.7349 23.9455 14.8306 23.8535 14.9167C23.7821 14.9722 23.7032 15 23.6168 15H20.5938C20.2482 15 19.9252 14.8918 19.6247 14.6755C19.574 14.6391 19.5026 14.5769 19.4105 14.4889C19.3148 14.3836 19.25 14.3013 19.2162 14.2419C19.1598 14.1539 19.1175 14.0773 19.0894 14.0122C18.9842 13.7901 18.9316 13.5413 18.9316 13.2656V12.7373C18.9316 12.4367 18.9955 12.1658 19.1232 11.9246C19.157 11.8557 19.203 11.7772 19.2612 11.6892C19.2763 11.6719 19.2922 11.6528 19.3091 11.6317C19.3373 11.5973 19.3692 11.5599 19.4049 11.5197C19.5045 11.4202 19.5852 11.3513 19.6472 11.313C19.7524 11.2364 19.8566 11.1752 19.9599 11.1292C20.174 11.0431 20.3872 11 20.5995 11Z" fill="white"/>
<path d="M15.8525 17V20.6692C15.8525 20.84 15.773 20.9811 15.614 21.0924C15.5345 21.1321 15.455 21.152 15.3756 21.152H14.5708V18.3979C14.5708 18.3661 14.5728 18.3423 14.5768 18.3264V18.3085H13.8614C13.776 18.3085 13.7034 18.2618 13.6438 18.1684C13.6279 18.1267 13.62 18.0879 13.62 18.0522V17.3189H14.3264C14.4118 17.3189 14.4834 17.2762 14.541 17.1908C14.5648 17.151 14.5768 17.0984 14.5768 17.0328V17H15.8525Z" fill="white"/>
</svg>
