<svg width="30" height="30" viewBox="0 0 30 30" fill="none" xmlns="http://www.w3.org/2000/svg">
<path d="M30 15C30 23.2848 23.2848 30 15 30C6.71524 30 0 23.2848 0 15C0 6.71524 6.71524 0 15 0C23.2848 0 30 6.71524 30 15Z" fill="#B4B2C2"/>
<path d="M26.4766 5.3452C23.7248 2.07706 19.6059 0 15 0C6.71523 0 0 6.71524 0 15C0 16.7397 0.299237 18.409 0.844905 19.9638C9.30569 14.9443 17.8427 10.0567 26.4766 5.3452Z" fill="#8F8DA3"/>
<path d="M26.1657 14.7624C26.1657 21.0611 21.0611 26.1657 14.7624 26.1657C8.46377 26.1657 3.35913 21.0611 3.35913 14.7624C3.35913 8.46377 8.46377 3.35913 14.7624 3.35913C21.0611 3.35913 26.1657 8.46377 26.1657 14.7624Z" fill="#D7D6DC"/>
<path d="M26.4883 15.2375C26.4883 21.4511 21.4511 26.4883 15.2375 26.4883C9.02397 26.4883 3.98682 21.4511 3.98682 15.2375C3.98682 9.02397 9.02397 3.98682 15.2375 3.98682C21.4511 3.98682 26.4883 9.02397 26.4883 15.2375Z" fill="#7B7A8C"/>
<path d="M14.5905 23.5204C14.4003 23.4108 14.2308 23.3129 14.0605 23.2154C13.6533 22.9823 13.2489 22.7445 12.8377 22.5188C12.7229 22.4559 12.6834 22.3863 12.6842 22.2578C12.6898 21.2947 12.6866 20.332 12.6882 19.3689C12.6882 19.2675 12.6818 19.1885 12.5721 19.1264C11.3821 18.4522 10.1956 17.7713 9.00799 17.0929C8.98606 17.0803 8.96054 17.074 8.91348 17.0559C8.91348 18.12 8.91348 19.1696 8.91348 20.2408C8.85326 20.2176 8.81697 20.2082 8.78546 20.1901C8.22873 19.8725 7.67079 19.5572 7.11964 19.2301C7.05862 19.194 7.00718 19.0878 7.00718 19.0143C7.0004 16.905 7.0008 14.7956 7.0004 12.6862C7.0004 12.0572 7.0004 11.4287 7 10.7997C7 10.7309 7 10.6617 7 10.5548C7.28953 10.7183 7.54038 10.8599 7.79123 11.0022C8.11307 11.1846 8.43212 11.3725 8.75794 11.5482C8.872 11.6095 8.91069 11.6818 8.90989 11.8104C8.90391 12.7735 8.90789 13.7362 8.9051 14.6993C8.9047 14.8046 8.92265 14.8773 9.02793 14.9371C10.2128 15.6077 11.3941 16.2839 12.5765 16.9584C12.6036 16.9737 12.6328 16.9855 12.683 17.0095C12.683 15.9364 12.683 14.8856 12.683 13.8089C12.752 13.8384 12.7999 13.8533 12.8425 13.8777C13.3829 14.1843 13.9209 14.4941 14.4633 14.7975C14.5602 14.8518 14.6049 14.9088 14.6049 15.0255C14.6013 17.8095 14.6021 20.5938 14.6017 23.3777C14.6009 23.4151 14.5957 23.4524 14.5905 23.5204Z" fill="white"/>
<path d="M21.5785 10.548C21.0445 10.8523 20.5468 11.1365 20.0483 11.4199C18.4005 12.3579 16.7522 13.295 15.1059 14.2353C15.0046 14.2931 14.9268 14.3077 14.818 14.2459C12.3753 12.8614 9.93059 11.4809 7.4863 10.0995C7.44283 10.0751 7.40055 10.048 7.33435 10.0079C7.86078 9.70798 8.37723 9.44068 8.86218 9.12698C9.14095 8.94694 9.34035 8.96778 9.62191 9.13013C11.3264 10.1148 13.0457 11.0748 14.7569 12.0481C14.8921 12.1252 14.9914 12.133 15.133 12.0516C16.5935 11.212 18.0595 10.3822 19.5211 9.54485C19.634 9.48038 19.7133 9.48077 19.8254 9.54603C20.3949 9.87898 20.9708 10.2021 21.5785 10.548Z" fill="white"/>
<path fill-rule="evenodd" clip-rule="evenodd" d="M22.8446 11.049C22.8446 10.826 22.6423 10.7312 22.4488 10.8419C21.1755 11.5666 19.9625 12.2399 18.7461 12.9151C17.6471 13.5252 16.5454 14.1368 15.3937 14.7892C15.2689 14.86 15.2378 14.9378 15.2378 15.0683C15.2405 17.3557 15.2403 19.6434 15.2402 21.9309C15.2402 22.3881 15.2402 22.8454 15.2402 23.3026V23.5165C15.2673 23.5025 15.2913 23.4905 15.3132 23.4796C15.3555 23.4585 15.3896 23.4414 15.4224 23.4225C15.5767 23.3342 15.7308 23.2455 15.8849 23.1568C16.2576 22.9422 16.6304 22.7277 17.0065 22.5188C17.1222 22.4543 17.1588 22.3835 17.158 22.2562C17.1556 21.8356 17.1555 21.4149 17.1555 20.9942C17.1554 20.465 17.1554 19.9357 17.1505 19.4066C17.1489 19.2462 17.2055 19.1633 17.3411 19.0862C18.2316 18.5801 19.1211 18.0723 20.0106 17.5646C20.9002 17.0568 21.7898 16.549 22.6803 16.0428C22.8076 15.9709 22.8478 15.8899 22.8474 15.7488C22.8438 14.51 22.8441 13.8768 22.8444 12.9402C22.8445 12.6288 22.8446 12.284 22.8446 11.8722V11.049ZM20.897 13.8426C20.9078 13.8401 20.9208 13.837 20.9371 13.8324C20.9371 13.8325 20.9371 13.8325 20.9371 13.8325C20.9373 13.8325 20.9374 13.8325 20.9375 13.8324C20.9375 13.9154 20.9377 13.9972 20.938 14.078C20.9388 14.3086 20.9395 14.5314 20.9339 14.7539C20.9323 14.8077 20.8964 14.8844 20.8521 14.9099C19.8275 15.4994 18.8007 16.085 17.7523 16.6829C17.5549 16.7955 17.3567 16.9085 17.1576 17.0221C17.1576 17.0218 17.1576 17.0215 17.1576 17.0212C17.1573 17.0214 17.1571 17.0215 17.1569 17.0217C17.1569 16.9413 17.1567 16.8624 17.1565 16.7847C17.156 16.5173 17.1555 16.2634 17.1616 16.0094C17.1628 15.9729 17.2207 15.9273 17.2625 15.9033C18.4602 15.2193 19.659 14.5373 20.8578 13.8552C20.8675 13.8496 20.8791 13.8468 20.897 13.8426Z" fill="white"/>
</svg>
