<svg width="560" height="560" viewBox="0 0 560 560" fill="none" xmlns="http://www.w3.org/2000/svg">
<path d="M560 280C560 434.649 434.649 560 280 560C125.351 560 0 434.649 0 280C0 125.351 125.351 0 280 0C434.649 0 560 125.351 560 280Z" fill="#BA880F"/>
<path d="M494.23 99.777C442.863 38.7718 365.977 0 280 0C125.351 0 0 125.351 0 280C0 312.474 5.58576 343.634 15.7716 372.658C173.706 278.96 333.065 187.725 494.23 99.777Z" fill="#DEA210"/>
<path d="M488.427 275.565C488.427 393.139 393.14 488.426 275.565 488.426C157.991 488.426 62.7041 393.139 62.7041 275.565C62.7041 157.99 157.991 62.7034 275.565 62.7034C393.14 62.7034 488.427 157.99 488.427 275.565Z" fill="#F1B624"/>
<path d="M494.448 284.434C494.448 400.42 400.421 494.447 284.434 494.447C168.447 494.447 74.4204 400.42 74.4204 284.434C74.4204 168.447 168.447 74.4202 284.434 74.4202C400.421 74.4202 494.448 168.447 494.448 284.434Z" fill="#9F740E"/>
<path d="M277.689 428.048C274.138 426 270.974 424.173 267.796 422.354C260.195 418.002 252.646 413.563 244.971 409.351C242.827 408.177 242.09 406.878 242.105 404.478C242.209 386.501 242.15 368.53 242.18 350.552C242.18 348.659 242.06 347.184 240.013 346.025C217.799 333.441 195.652 320.731 173.483 308.066C173.073 307.831 172.597 307.714 171.718 307.376C171.718 327.24 171.718 346.832 171.718 366.828C170.594 366.395 169.917 366.219 169.329 365.881C158.936 359.952 148.521 354.067 138.233 347.962C137.094 347.287 136.134 345.306 136.134 343.934C136.007 304.559 136.015 265.184 136.007 225.809C136.007 214.068 136.007 202.335 136 190.594C136 189.31 136 188.019 136 186.023C141.405 189.075 146.087 191.717 150.77 194.373C156.777 197.778 162.733 201.285 168.815 204.566C170.944 205.71 171.666 207.06 171.651 209.46C171.54 227.438 171.614 245.408 171.562 263.386C171.554 265.352 171.889 266.71 173.855 267.825C195.972 280.344 218.022 292.965 240.095 305.557C240.601 305.843 241.145 306.063 242.083 306.511C242.083 286.478 242.083 266.864 242.083 246.766C243.371 247.316 244.264 247.595 245.06 248.05C255.148 253.773 265.19 259.556 275.315 265.22C277.124 266.233 277.957 267.297 277.957 269.476C277.89 321.443 277.905 373.417 277.898 425.384C277.883 426.081 277.786 426.778 277.689 428.048Z" fill="white"/>
<path d="M408.134 185.897C398.166 191.576 388.875 196.882 379.57 202.172C348.809 219.68 318.042 237.174 287.311 254.726C285.42 255.805 283.969 256.076 281.936 254.924C236.339 229.08 190.705 203.309 145.079 177.524C144.267 177.069 143.478 176.563 142.242 175.814C152.069 170.216 161.709 165.226 170.762 159.37C175.965 156.01 179.688 156.398 184.943 159.429C216.761 177.81 248.853 195.729 280.797 213.898C283.321 215.336 285.175 215.483 287.817 213.964C315.079 198.29 342.444 182.8 369.728 167.17C371.835 165.967 373.316 165.974 375.408 167.192C386.039 173.408 396.789 179.439 408.134 185.897Z" fill="white"/>
<path fill-rule="evenodd" clip-rule="evenodd" d="M431.767 195.248C431.767 191.085 427.991 189.316 424.378 191.383C400.61 204.91 377.968 217.479 355.262 230.083C334.748 241.47 314.181 252.887 292.684 265.066C290.354 266.387 289.773 267.84 289.773 270.276C289.823 312.974 289.821 355.677 289.818 398.377C289.818 406.912 289.818 415.447 289.818 423.983V427.974C290.324 427.715 290.772 427.491 291.18 427.287C291.969 426.892 292.606 426.574 293.22 426.221C296.1 424.573 298.976 422.917 301.851 421.261C308.809 417.256 315.767 413.25 322.789 409.351C324.948 408.147 325.633 406.827 325.618 404.449C325.572 396.598 325.571 388.746 325.57 380.893C325.569 371.014 325.568 361.134 325.476 351.257C325.447 348.263 326.504 346.715 329.035 345.277C345.658 335.829 362.262 326.351 378.866 316.872C395.471 307.394 412.077 297.915 428.7 288.467C431.075 287.124 431.827 285.612 431.82 282.978C431.753 259.853 431.757 248.034 431.763 230.551C431.765 224.739 431.767 218.301 431.767 210.614V195.248ZM395.412 247.396C395.613 247.349 395.857 247.291 396.161 247.206C396.161 247.207 396.161 247.207 396.161 247.208C396.163 247.207 396.165 247.207 396.167 247.206C396.167 248.755 396.172 250.281 396.177 251.789C396.191 256.094 396.205 260.254 396.1 264.406C396.07 265.411 395.4 266.842 394.574 267.319C375.448 278.323 356.28 289.254 336.711 300.414C333.025 302.516 329.325 304.626 325.609 306.746C325.609 306.74 325.609 306.735 325.609 306.73C325.604 306.733 325.6 306.735 325.595 306.738C325.595 305.238 325.592 303.766 325.589 302.314C325.579 297.324 325.569 292.584 325.685 287.843C325.707 287.161 326.787 286.309 327.568 285.862C349.924 273.094 372.302 260.363 394.679 247.631C394.861 247.526 395.077 247.475 395.412 247.396Z" fill="white"/>
</svg>
