<svg width="17" height="15" viewBox="0 0 17 15" fill="none" xmlns="http://www.w3.org/2000/svg">
<path fill-rule="evenodd" clip-rule="evenodd" d="M13.3432 4.24264C11.7435 3.99815 10.1315 3.88949 8.392 3.8874C7.50785 3.88949 6.50444 3.93128 5.50309 4.02114C4.42711 4.11848 3.35856 4.26748 2.29745 4.46616L3.52455 1.98142C3.62302 1.83831 3.77304 1.7624 3.92289 1.7624L5.07956 1.7624C5.2339 1.7624 5.38789 1.84283 5.48569 1.99503L5.96296 2.72951C6.21078 3.11071 6.6267 3.35074 7.08296 3.35074L9.688 3.35074C10.1795 3.35074 10.624 3.07237 10.8607 2.64189L11.1983 2.0315L11.199 2.03033C11.2946 1.8561 11.4621 1.7624 11.6266 1.7624L13.0628 1.7624C13.219 1.7624 13.3789 1.84732 13.4776 2.00541L14.7487 4.48338C14.2815 4.39442 13.8128 4.31403 13.3432 4.24264ZM15.8192 4.70803C16.5309 4.9232 16.9991 5.59054 16.9991 6.36155C16.9991 6.80587 16.9993 7.25019 16.9995 7.69459C17 8.58362 17.0005 9.47296 16.9991 10.3632C16.997 11.9284 15.8661 13.3013 14.3508 13.5917C13.1273 13.8279 11.8957 13.993 10.6538 14.0849C10.4399 14.1016 10.2631 14.0348 10.1151 13.8738C9.23914 12.9231 7.81422 12.9043 6.9239 13.8383C6.73885 14.0327 6.53529 14.1016 6.2721 14.0807C5.05279 13.9867 3.84172 13.8195 2.64092 13.5897C1.25507 13.3243 0.150907 12.0997 0.0213693 10.6746C0.0110885 10.5701 0.00286384 10.4635 0.00286384 10.3591C0.0025701 10.168 0.0022344 9.97695 0.0018987 9.78589C-0.000115498 8.63957 -0.0021297 7.49325 0.00492 6.34692C0.00878777 5.55094 0.507391 4.90469 1.2407 4.68634L2.78434 1.56067L2.79677 1.54116C3.04308 1.15475 3.46264 0.912396 3.92289 0.912396L5.07956 0.912396C5.5366 0.912396 5.95352 1.15139 6.20017 1.53457L6.20079 1.53553L6.6756 2.26621C6.77619 2.42095 6.93152 2.50074 7.08296 2.50074L9.688 2.50074C9.85252 2.50074 10.0199 2.40704 10.1156 2.23282L10.1162 2.23164L10.4539 1.62125C10.6905 1.19078 11.135 0.912396 11.6266 0.912396L13.0628 0.912396C13.5394 0.912397 13.9716 1.17397 14.2137 1.57997L14.2207 1.59164L15.8192 4.70803Z" fill="white"/>
<path d="M13.8367 10.5972C13.8367 10.4346 13.8909 10.2991 13.9993 10.1907C14.1077 10.08 14.2474 10.0247 14.4183 10.0247C14.5914 10.0247 14.7311 10.08 14.8374 10.1907C14.9458 10.2991 15 10.4346 15 10.5972C15 10.7598 14.9458 10.8965 14.8374 11.0071C14.7311 11.1155 14.5914 11.1698 14.4183 11.1698C14.2474 11.1698 14.1077 11.1155 13.9993 11.0071C13.8909 10.8965 13.8367 10.7598 13.8367 10.5972Z" fill="#211E49"/>
<path d="M11.3818 7.23639L10.2716 11.1324L9.09265 11.1324L10.7657 6.19971L11.5132 6.19971L11.3818 7.23639ZM12.3012 11.1324L11.1879 7.23639L11.0441 6.19971L11.8009 6.19971L13.4833 11.1324L12.3012 11.1324ZM12.2574 9.29282L12.2574 10.2109L9.92138 10.2109L9.92138 9.29282L12.2574 9.29282Z" fill="#211E49"/>
<path d="M5.9375 10.5972C5.9375 10.4346 5.99171 10.2991 6.10012 10.1907C6.20853 10.08 6.34821 10.0247 6.51917 10.0247C6.69221 10.0247 6.8319 10.08 6.93823 10.1907C7.04664 10.2991 7.10084 10.4346 7.10084 10.5972C7.10084 10.7598 7.04664 10.8965 6.93823 11.0071C6.8319 11.1155 6.69221 11.1698 6.51917 11.1698C6.34821 11.1698 6.20853 11.1155 6.10012 11.0071C5.99171 10.8965 5.9375 10.7598 5.9375 10.5972Z" fill="#211E49"/>
<path d="M4.08276 9.97039L5.03032 6.19971L6.25934 6.19971L4.72385 11.1324L3.92952 11.1324L4.08276 9.97039ZM3.22276 6.19971L4.17032 9.97039L4.32981 11.1324L3.52611 11.1324L2 6.19971L3.22276 6.19971Z" fill="#211E49"/>
</svg>
