<svg width="23" height="20" viewBox="0 0 23 20" fill="none" xmlns="http://www.w3.org/2000/svg">
<path fill-rule="evenodd" clip-rule="evenodd" d="M17.8664 6.04447C15.8023 5.74756 13.7222 5.61559 11.4777 5.61306C10.3369 5.61559 9.04218 5.66635 7.75013 5.77547C6.36155 5.89371 4.98258 6.07468 3.6132 6.31602L5.1967 3.29824C5.32375 3.12445 5.51732 3.03226 5.71069 3.03226L7.20315 3.03226C7.40229 3.03226 7.601 3.12994 7.72718 3.31477L8.34301 4.20673C8.66278 4.66967 9.19945 4.96117 9.78816 4.96117L13.1495 4.96117C13.7837 4.96117 14.3573 4.6231 14.6626 4.10033L15.0983 3.35906L15.0991 3.35763C15.2225 3.14605 15.4386 3.03226 15.6508 3.03226L17.504 3.03226C17.7056 3.03226 17.9119 3.13539 18.0393 3.32737L19.6794 6.33674C19.0768 6.22874 18.472 6.13114 17.8664 6.04447ZM21.0607 6.60951C21.9793 6.87066 22.5836 7.68121 22.5836 8.61769C22.5836 9.15728 22.5839 9.69687 22.5842 10.2366C22.5847 11.3162 22.5853 12.3962 22.5836 13.4774C22.5809 15.3781 21.1217 17.0454 19.1664 17.3981C17.5878 17.6849 15.9986 17.8854 14.3961 17.997C14.1202 18.0173 13.892 17.9361 13.701 17.7407C12.5708 16.5861 10.7322 16.5632 9.58342 17.6976C9.34464 17.9336 9.08198 18.0173 8.74239 17.992C7.1691 17.8778 5.60643 17.6747 4.05703 17.3956C2.26884 17.0733 0.844132 15.5862 0.676988 13.8555C0.663722 13.7286 0.65311 13.5992 0.65311 13.4723C0.652731 13.2403 0.652298 13.0083 0.651864 12.7763C0.649265 11.3841 0.646667 9.99204 0.655763 8.59993C0.660752 7.63351 1.3038 6.84884 2.24963 6.58349L4.24159 2.78728L4.25764 2.76358C4.57544 2.29433 5.11682 2.00001 5.71069 2.00001L7.20315 2.00001C7.79287 2.00001 8.33083 2.29025 8.64909 2.75558L8.64989 2.75675L9.26254 3.6441C9.39234 3.83201 9.59275 3.92892 9.78816 3.92892L13.1495 3.92892C13.3618 3.92892 13.5778 3.81512 13.7012 3.60354L13.702 3.60211L14.1377 2.86084C14.4431 2.33808 15.0166 2.00001 15.6508 2.00001L17.504 2.00001C18.1189 2.00001 18.6766 2.31767 18.9891 2.81072L18.9981 2.82488L21.0607 6.60951Z" fill="#1B183F"/>
<path d="M6.4248 14.4692L8.37451 8.17969L10.0127 8.17969L7.25195 16L6.16162 16L6.4248 14.4692ZM4.62549 8.17969L6.56445 14.4692L6.84375 16L5.74268 16L2.99268 8.17969L4.62549 8.17969Z" fill="white"/>
<path d="M17.1826 9.3667L14.9536 16L13.3906 16L16.3125 8.17969L17.3115 8.17969L17.1826 9.3667ZM19.0464 16L16.8066 9.3667L16.6724 8.17969L17.6768 8.17969L20.6147 16L19.0464 16ZM18.9443 13.0942L18.9443 14.2598L14.7495 14.2598L14.7495 13.0942L18.9443 13.0942Z" fill="white"/>
</svg>
